<svg aria-hidden="true" style="position: absolute; width: 0; height: 0; overflow: hidden;" version="1.1" xmlns="http://www.w3.org/2000/svg" xmlns:xlink="http://www.w3.org/1999/xlink">
<defs>
<symbol id="icon-ethereum" viewBox="0 0 32 32">
<path d="M15.925 23.96l-9.819-5.8 9.817 13.84 9.827-13.84-9.829 5.8zM16.075 0l-9.821 16.297 9.82 5.805 9.82-5.8z"></path>
</symbol>
<symbol id="icon-copy-icon" viewBox="0 0 24 24">
<path fill="none" stroke="#008c73" style="stroke: var(--color1, #008c73)" stroke-linejoin="round" stroke-linecap="round" stroke-miterlimit="4" stroke-width="1.3846" d="M9.229 7.383h9.236c1.020 0 1.846 0.827 1.846 1.846v9.236c0 1.020-0.827 1.846-1.846 1.846h-9.236c-1.020 0-1.846-0.827-1.846-1.846v-9.236c0-1.020 0.827-1.846 1.846-1.846z"></path>
<path fill="none" stroke="#008c73" style="stroke: var(--color1, #008c73)" stroke-linejoin="round" stroke-linecap="round" stroke-miterlimit="4" stroke-width="1.3846" d="M7.383 16.617h-1.847c-1.020 0-1.847-0.827-1.847-1.847v-9.235c0-1.020 0.827-1.847 1.847-1.847h9.235c1.020 0 1.847 0.827 1.847 1.847v1.847"></path>
</symbol>
<symbol id="icon-edit-icon" viewBox="0 0 24 24">
<path fill="none" stroke="#fff" style="stroke: var(--color2, #fff)" stroke-linejoin="round" stroke-linecap="round" stroke-miterlimit="4" stroke-width="1.5" d="M12 12l9-9h-7"></path>
<path fill="none" stroke="#fff" style="stroke: var(--color2, #fff)" stroke-linejoin="round" stroke-linecap="round" stroke-miterlimit="4" stroke-width="1.5" d="M9 3h-4c-1.105 0-2 0.895-2 2v14c0 1.105 0.895 2 2 2h14c1.105 0 2-0.895 2-2v-4"></path>
</symbol>
<symbol id="icon-wallet" viewBox="0 0 24 24">
<path stroke-linejoin="round" stroke-linecap="round" stroke-miterlimit="4" stroke-width="1.5" d="M21 8.5h-15c-1.105 0-2-0.895-2-2v0c0-1.105 0.895-2 2-2h13c1.105 0 2 0.895 2 2v11c0 1.105-0.895 2-2 2h-13c-1.105 0-2-0.895-2-2v-11"></path>
<path stroke-linejoin="round" stroke-linecap="round" stroke-miterlimit="4" stroke-width="1.5" d="M21 15.5h-3c-1.105 0-2-0.895-2-2v0c0-1.105 0.895-2 2-2h3"></path>
</symbol>
<symbol id="icon-edit-2" viewBox="0 0 24 24">
<path fill="none" stroke="#008c73" style="stroke: var(--color1, #008c73)" stroke-linejoin="round" stroke-linecap="round" stroke-miterlimit="4" stroke-width="1.5" d="M12 12l9-9h-7"></path>
<path fill="none" stroke="#008c73" style="stroke: var(--color1, #008c73)" stroke-linejoin="round" stroke-linecap="round" stroke-miterlimit="4" stroke-width="1.5" d="M9 3h-4c-1.105 0-2 0.895-2 2v14c0 1.105 0.895 2 2 2h14c1.105 0 2-0.895 2-2v-4"></path>
</symbol>
<symbol id="icon-copy-2" viewBox="0 0 24 24">
<path fill="none" stroke="#008c73" style="stroke: var(--color1, #008c73)" stroke-linejoin="round" stroke-linecap="round" stroke-miterlimit="4" stroke-width="1.3846" d="M9.227 7.383h9.236c1.020 0 1.846 0.827 1.846 1.846v9.236c0 1.020-0.827 1.846-1.846 1.846h-9.236c-1.020 0-1.846-0.827-1.846-1.846v-9.236c0-1.020 0.827-1.846 1.846-1.846z"></path>
<path fill="none" stroke="#008c73" style="stroke: var(--color1, #008c73)" stroke-linejoin="round" stroke-linecap="round" stroke-miterlimit="4" stroke-width="1.3846" d="M7.383 16.617h-1.847c-1.020 0-1.847-0.827-1.847-1.847v-9.235c0-1.020 0.827-1.847 1.847-1.847h9.235c1.020 0 1.847 0.827 1.847 1.847v1.847"></path>
</symbol>

<symbol id="icon-send" viewBox="0 0 26 24">
<path fill="none" stroke="#fdfdfd" style="stroke: var(--color1, #fdfdfd)" stroke-linejoin="round" stroke-linecap="round" stroke-miterlimit="4" stroke-width="1.5" d="M8.671 11.199l2.361 10.625c0.295 1.324 2.053 1.609 2.751 0.447l10.999-18.332c0.601-1-0.119-2.272-1.285-2.272h-20.735c-1.337 0-2.007 1.616-1.061 2.561l6.971 6.971z"></path>
<path fill="none" stroke="#fdfdfd" style="stroke: var(--color1, #fdfdfd)" stroke-linejoin="round" stroke-linecap="round" stroke-miterlimit="4" stroke-width="1.5" d="M24.786 2.414l-16.12 8.787"></path>
</symbol>
<symbol id="icon-Notification" viewBox="0 0 24 24">
<path fill="#fafafa" style="fill: var(--color1, #fafafa)" d="M12 0c6.627 0 12 5.373 12 12s-5.373 12-12 12c-6.627 0-12-5.373-12-12s5.373-12 12-12z"></path>
<path fill="none" stroke="#1f2c37" style="stroke: var(--color2, #1f2c37)" stroke-linejoin="round" stroke-linecap="round" stroke-miterlimit="4" stroke-width="0.75" d="M10.663 15.701v0.213c0 0.738 0.598 1.336 1.337 1.336v0c0.738 0 1.337-0.599 1.337-1.337v-0.213"></path>
<path fill="none" stroke="#1f2c37" style="stroke: var(--color2, #1f2c37)" stroke-linejoin="round" stroke-linecap="round" stroke-miterlimit="4" stroke-width="0.75" d="M13.069 8.355v-0.535c0-0.59-0.478-1.069-1.069-1.069v0c-0.591 0-1.069 0.479-1.069 1.069v0.535"></path>
<path fill="none" stroke="#1f2c37" style="stroke: var(--color2, #1f2c37)" stroke-linejoin="round" stroke-linecap="round" stroke-miterlimit="4" stroke-width="0.75" d="M8.828 10.943v0c0-1.46 1.184-2.643 2.643-2.643h1.058c1.46 0 2.643 1.184 2.643 2.643v0 1.632c0 0.309 0.123 0.606 0.342 0.825l0.374 0.374c0.219 0.219 0.342 0.516 0.342 0.825v0c0 0.609-0.494 1.102-1.102 1.102h-6.254c-0.609 0-1.103-0.494-1.103-1.102v0c0-0.309 0.123-0.606 0.342-0.825l0.374-0.374c0.219-0.219 0.342-0.516 0.342-0.825v-1.632z"></path>
</symbol>
<symbol id="icon-Connect" viewBox="0 0 24 24">
<path fill="#f04465" style="fill: var(--color3, #f04465)" d="M12 0c6.627 0 12 5.373 12 12s-5.373 12-12 12c-6.627 0-12-5.373-12-12s5.373-12 12-12z"></path>
<path fill="none" stroke="#fff" style="stroke: var(--color4, #fff)" stroke-linejoin="round" stroke-linecap="round" stroke-miterlimit="4" stroke-width="0.722" d="M16.136 10.349l0.822-0.822"></path>
<path fill="none" stroke="#fff" style="stroke: var(--color4, #fff)" stroke-linejoin="round" stroke-linecap="round" stroke-miterlimit="4" stroke-width="0.722" d="M16.958 14.473l-0.822-0.822"></path>
<path fill="none" stroke="#fff" style="stroke: var(--color4, #fff)" stroke-linejoin="round" stroke-linecap="round" stroke-miterlimit="4" stroke-width="0.722" d="M16.958 12h1.167"></path>
<path fill="none" stroke="#fff" style="stroke: var(--color4, #fff)" stroke-linejoin="round" stroke-linecap="round" stroke-miterlimit="4" stroke-width="0.722" d="M7.864 13.651l-0.822 0.822"></path>
<path fill="none" stroke="#fff" style="stroke: var(--color4, #fff)" stroke-linejoin="round" stroke-linecap="round" stroke-miterlimit="4" stroke-width="0.722" d="M7.042 9.527l0.822 0.822"></path>
<path fill="none" stroke="#fff" style="stroke: var(--color4, #fff)" stroke-linejoin="round" stroke-linecap="round" stroke-miterlimit="4" stroke-width="0.722" d="M7.042 12h-1.167"></path>
<path fill="none" stroke="#fff" style="stroke: var(--color4, #fff)" stroke-linejoin="round" stroke-linecap="round" stroke-miterlimit="4" stroke-width="0.75" d="M12.259 10.963c1.146 0 2.074 0.929 2.074 2.074v1.296c0 1.289-1.045 2.333-2.333 2.333v0c-1.289 0-2.333-1.045-2.333-2.333v-0.259"></path>
<path fill="none" stroke="#fff" style="stroke: var(--color4, #fff)" stroke-linejoin="round" stroke-linecap="round" stroke-miterlimit="4" stroke-width="0.75" d="M12 13.167c-1.289 0-2.333-1.045-2.333-2.333v-1.167c0-1.289 1.045-2.333 2.333-2.333v0c1.289 0 2.333 1.045 2.333 2.333v0.259"></path>
</symbol>
<symbol id="icon-Ethereum" viewBox="0 0 24 24">
<path fill="#eceff0" style="fill: var(--color5, #eceff0)" d="M12 0c6.627 0 12 5.373 12 12s-5.373 12-12 12c-6.627 0-12-5.373-12-12s5.373-12 12-12z"></path>
<path fill="#8c8c8c" style="fill: var(--color6, #8c8c8c)" d="M12.084 5.334v4.908c0 0.021-0.021 0.042-0.042 0.042-0.146 0.064-0.271 0.127-0.417 0.19-0.188 0.084-0.396 0.168-0.583 0.274l-0.688 0.315-0.563 0.253-0.688 0.316c-0.188 0.084-0.375 0.168-0.583 0.274-0.146 0.063-0.312 0.148-0.458 0.211-0.021 0-0.021 0.021-0.042 0h-0.021c0.063-0.105 0.125-0.19 0.188-0.295 0.333-0.569 0.688-1.138 1.021-1.707 0.354-0.61 0.729-1.221 1.083-1.832 0.333-0.568 0.667-1.137 1-1.685 0.25-0.422 0.5-0.822 0.729-1.243 0.042 0 0.042-0.021 0.063-0.021 0 0-0.021 0 0 0z"></path>
<path fill="#141414" style="fill: var(--color7, #141414)" d="M16.125 12.116c-0.312 0.211-0.646 0.4-0.958 0.589-1.021 0.611-2.021 1.201-3.042 1.812-0.021 0-0.021 0.021-0.042 0.021s-0.021-0.021-0.021-0.021v-4.234c0-0.021 0.021-0.021 0.042-0.021 0.083 0.042 0.167 0.085 0.271 0.126 0.25 0.127 0.521 0.232 0.771 0.358 0.229 0.105 0.438 0.211 0.667 0.295 0.229 0.105 0.438 0.211 0.667 0.316 0.188 0.084 0.396 0.168 0.583 0.274 0.188 0.085 0.396 0.168 0.583 0.274 0.146 0.063 0.292 0.148 0.458 0.211 0-0.021 0 0 0.021 0z"></path>
<path fill="#8c8c8c" style="fill: var(--color6, #8c8c8c)" d="M12.084 18.667c0 0-0.021 0 0 0-0.021 0-0.021 0-0.042-0.021-0.417-0.589-0.813-1.158-1.229-1.748l-1.25-1.769c-0.396-0.568-0.813-1.137-1.208-1.727l-0.312-0.442c0-0.021-0.021-0.021-0.021-0.042 0.021 0 0.021 0.021 0.042 0.021 0.563 0.337 1.146 0.674 1.708 1.011 0.646 0.401 1.313 0.78 1.958 1.18 0.104 0.063 0.229 0.126 0.333 0.189 0.021 0 0.021 0.021 0.021 0.042v3.307z"></path>
<path fill="#3c3c3b" style="fill: var(--color8, #3c3c3b)" d="M8 11.895c0-0.021 0-0.021 0 0 0.208-0.105 0.417-0.189 0.625-0.295l0.813-0.379c0.208-0.105 0.417-0.189 0.625-0.295 0.292-0.148 0.604-0.274 0.896-0.421 0.208-0.085 0.417-0.19 0.625-0.274 0.146-0.063 0.292-0.126 0.438-0.211 0.021 0 0.021-0.021 0.042-0.021v4.297c-0.021 0.021-0.021 0-0.042 0-0.063-0.042-0.125-0.063-0.167-0.105l-3.813-2.274c-0.021-0.021-0.042-0.021-0.042-0.021zM16.063 12.675c0 0.021 0 0.021-0.021 0.042-1.208 1.727-2.417 3.433-3.625 5.161-0.125 0.189-0.25 0.358-0.375 0.548v-3.35c0.271-0.168 0.542-0.337 0.813-0.484l3.188-1.896c0-0.021 0.021-0.021 0.021-0.021z"></path>
<path fill="#343434" style="fill: var(--color9, #343434)" d="M12.084 10.262v-4.907l4 6.698c0.021 0.021 0.042 0.042 0.042 0.063-0.083-0.042-0.167-0.085-0.271-0.126s-0.208-0.105-0.313-0.148c-0.063-0.021-0.125-0.063-0.208-0.084-0.104-0.042-0.229-0.105-0.333-0.147-0.063-0.021-0.125-0.063-0.188-0.084l-0.438-0.189c-0.083-0.042-0.146-0.063-0.229-0.105-0.104-0.042-0.208-0.105-0.312-0.148-0.063-0.021-0.125-0.063-0.188-0.084l-0.438-0.19c-0.083-0.042-0.146-0.063-0.229-0.105-0.104-0.042-0.208-0.105-0.312-0.148-0.063-0.042-0.146-0.063-0.208-0.105l-0.375-0.19v-0.001z"></path>
</symbol>
<symbol id="icon-chevron-down" viewBox="0 0 24 24">
<path d="M5.293 9.707l6 6c0.391 0.391 1.024 0.391 1.414 0l6-6c0.391-0.391 0.391-1.024 0-1.414s-1.024-0.391-1.414 0l-5.293 5.293-5.293-5.293c-0.391-0.391-1.024-0.391-1.414 0s-0.391 1.024 0 1.414z"></path>
</symbol>
</defs>
</svg>
